<svg xmlns="http://www.w3.org/2000/svg" width="24" height="24" fill="none" viewBox="0 0 24 24">
  <path fill="#F8F8F8" d="m6.91 5.5 2.3 2.29-1.42 1.42-2.29-2.3-2.29 2.3-1.42-1.42 2.3-2.29-2.3-2.29 1.42-1.42 2.29 2.3 2.29-2.3 1.42 1.42m13 13-1.42-1.42-2.29 2.3-2.29-2.3-1.42 1.42 2.3 2.29-2.3 2.29 1.42 1.42 2.29-2.3 2.29 2.3 1.42-1.42-2.3-2.29m.49-11.67L17.18 11 15.6 9.73l1.17-1.5a9.08 9.08 0 0 0-6.66 5.62A4.5 4.5 0 1 1 7.5 13c.262.001.523.028.78.08a11.27 11.27 0 0 1 8.15-6.82L15 5.18l1.27-1.58M10 17.5a2.5 2.5 0 1 0-5 0 2.5 2.5 0 0 0 5 0Z"/>
</svg>
