<svg xmlns="http://www.w3.org/2000/svg" xmlns:xlink="http://www.w3.org/1999/xlink" width="1920" zoomAndPan="magnify" viewBox="0 0 1440 809.999993" height="1080" preserveAspectRatio="xMidYMid meet" version="1.0"><defs><g/></defs><rect x="-144" width="1728" fill="#ffffff" y="-80.999999" height="971.999992" fill-opacity="1"/><g fill="#000000" fill-opacity="1"><g transform="translate(697.53741, 581.771477)"><g><path d="M -14.5625 8.59375 C -12.664062 8.96875 -11.015625 9.789062 -9.609375 11.0625 C -8.203125 12.332031 -7.195312 13.867188 -6.59375 15.671875 C -6 17.472656 -5.890625 19.328125 -6.265625 21.234375 C -6.640625 23.078125 -7.445312 24.707031 -8.6875 26.125 C -9.925781 27.539062 -11.441406 28.5625 -13.234375 29.1875 C -15.023438 29.8125 -16.867188 29.9375 -18.765625 29.5625 C -20.617188 29.1875 -22.25 28.363281 -23.65625 27.09375 C -25.0625 25.832031 -26.078125 24.304688 -26.703125 22.515625 C -27.335938 20.734375 -27.46875 18.921875 -27.09375 17.078125 C -26.71875 15.171875 -25.894531 13.5 -24.625 12.0625 C -23.351562 10.632812 -21.820312 9.601562 -20.03125 8.96875 C -18.238281 8.34375 -16.414062 8.21875 -14.5625 8.59375 Z M -14.5625 8.59375 "/></g></g></g><g fill="#000000" fill-opacity="1"><g transform="translate(656.379116, 571.100618)"><g/></g></g><g fill="#000000" fill-opacity="1"><g transform="translate(629.491483, 560.934826)"><g><path d="M -28.5 -23.734375 C -29.300781 -19.535156 -30.328125 -12.941406 -31.578125 -3.953125 L -20.734375 -4.90625 L -14.65625 -12.203125 L -2.03125 -1.6875 C -7.757812 4.632812 -13.003906 10.65625 -17.765625 16.375 C -22.523438 22.09375 -27.5 28.347656 -32.6875 35.140625 L -45.3125 24.625 L -32.9375 9.765625 C -44.28125 10.742188 -52.832031 12.007812 -58.59375 13.5625 L -75.03125 -0.125 L -45.875 -2.640625 C -45.488281 -7.929688 -45.15625 -13.75 -44.875 -20.09375 C -44.59375 -26.445312 -44.441406 -32.078125 -44.421875 -36.984375 Z M -28.5 -23.734375 "/></g></g></g><g fill="#000000" fill-opacity="1"><g transform="translate(575.350953, 512.181608)"><g><path d="M -19.09375 -10.609375 C -26.863281 -25.421875 -32.65625 -36.070312 -36.46875 -42.5625 C -34.738281 -43.132812 -33.007812 -43.828125 -31.28125 -44.640625 C -29.550781 -45.460938 -27.394531 -46.539062 -24.8125 -47.875 L -1.21875 -2.34375 C -8.945312 1.269531 -16.113281 4.785156 -22.71875 8.203125 C -29.320312 11.628906 -36.335938 15.460938 -43.765625 19.703125 L -67.359375 -25.828125 L -56.75 -31.328125 L -40.3125 0.375 L -34.6875 -2.53125 C -35.625 -4.4375 -37.046875 -7.226562 -38.953125 -10.90625 C -42.160156 -17.113281 -45.609375 -23.472656 -49.296875 -29.984375 L -39.203125 -35.203125 C -36.003906 -28.441406 -32.800781 -21.957031 -29.59375 -15.75 C -27.6875 -12.070312 -26.21875 -9.304688 -25.1875 -7.453125 Z M -19.09375 -10.609375 "/></g></g></g><g fill="#000000" fill-opacity="1"><g transform="translate(545.281324, 449.216409)"><g><path d="M -52.5625 -54.609375 L -42.125 -51.109375 C -32.914062 -48.023438 -25.546875 -45.609375 -20.015625 -43.859375 C -14.484375 -42.109375 -8.878906 -40.535156 -3.203125 -39.140625 L -1.59375 -19.46875 C -6.882812 -17.21875 -12.101562 -14.789062 -17.25 -12.1875 C -22.40625 -9.582031 -29 -6.117188 -37.03125 -1.796875 C -38.382812 -1.066406 -41.960938 0.835938 -47.765625 3.921875 L -49.265625 -14.359375 C -45.109375 -16.035156 -39.804688 -18.4375 -33.359375 -21.5625 C -27.671875 -24.332031 -22.738281 -26.59375 -18.5625 -28.34375 C -21.65625 -29.019531 -24.972656 -29.859375 -28.515625 -30.859375 C -32.066406 -31.867188 -34.222656 -32.476562 -34.984375 -32.6875 C -41.910156 -34.6875 -47.289062 -36.117188 -51.125 -36.984375 Z M -52.5625 -54.609375 "/></g></g></g><g fill="#000000" fill-opacity="1"><g transform="translate(543.191754, 376.584319)"><g><path d="M -22.015625 -49.03125 C -23.722656 -44.070312 -24.953125 -40.398438 -25.703125 -38.015625 L -4.015625 -31.734375 C -3.347656 -34.191406 -2.421875 -37.957031 -1.234375 -43.03125 L 11.390625 -39.375 L 0.734375 -2.53125 L -11.890625 -6.1875 C -10.222656 -10.96875 -9.003906 -14.617188 -8.234375 -17.140625 L -29.921875 -23.421875 C -30.597656 -20.867188 -31.515625 -17.125 -32.671875 -12.1875 L -45.296875 -15.84375 L -34.640625 -52.6875 Z M -22.015625 -49.03125 "/></g></g></g><g fill="#000000" fill-opacity="1"><g transform="translate(559.92025, 322.00313)"><g><path d="M -3.1875 -75.125 C 2.550781 -70.394531 8.8125 -65.46875 15.59375 -60.34375 C 22.394531 -55.207031 28.859375 -50.519531 34.984375 -46.28125 L 20.734375 -27.4375 L -17.65625 -36.421875 L 11.828125 -15.640625 L 1.59375 -2.109375 C -5 -7.535156 -11.265625 -12.488281 -17.203125 -16.96875 C -23.097656 -21.4375 -29.554688 -26.097656 -36.578125 -30.953125 L -21.9375 -50.3125 L 17.265625 -40.8125 L -12.9375 -62.21875 Z M -3.1875 -75.125 "/></g></g></g><g fill="#000000" fill-opacity="1"><g transform="translate(609.715923, 265.447316)"><g/></g></g><g fill="#000000" fill-opacity="1"><g transform="translate(635.07638, 248.344247)"><g><path d="M 6.828125 -15.46875 C 5.066406 -14.675781 3.238281 -14.382812 1.34375 -14.59375 C -0.539062 -14.800781 -2.25 -15.460938 -3.78125 -16.578125 C -5.320312 -17.691406 -6.492188 -19.128906 -7.296875 -20.890625 C -8.078125 -22.609375 -8.375 -24.40625 -8.1875 -26.28125 C -8.007812 -28.15625 -7.375 -29.867188 -6.28125 -31.421875 C -5.195312 -32.984375 -3.773438 -34.160156 -2.015625 -34.953125 C -0.296875 -35.734375 1.503906 -36.019531 3.390625 -35.8125 C 5.273438 -35.613281 6.992188 -34.96875 8.546875 -33.875 C 10.097656 -32.789062 11.265625 -31.390625 12.046875 -29.671875 C 12.847656 -27.910156 13.148438 -26.078125 12.953125 -24.171875 C 12.753906 -22.273438 12.113281 -20.546875 11.03125 -18.984375 C 9.945312 -17.421875 8.546875 -16.25 6.828125 -15.46875 Z M 6.828125 -15.46875 "/></g></g></g><g fill="#000000" fill-opacity="1"><g transform="translate(674.723637, 232.987572)"><g/></g></g><g fill="#000000" fill-opacity="1"><g transform="translate(702.468945, 225.536524)"><g><path d="M 31.703125 -25.125 L 59.8125 -23.109375 L 57.859375 4.15625 L 46.265625 3.3125 L 45.734375 -8.4375 C 44.117188 -4.351562 41.550781 -1.425781 38.03125 0.34375 C 34.507812 2.113281 30.3125 2.828125 25.4375 2.484375 C 21 2.160156 17.128906 0.890625 13.828125 -1.328125 C 10.523438 -3.546875 8.03125 -6.566406 6.34375 -10.390625 C 4.65625 -14.222656 3.988281 -18.597656 4.34375 -23.515625 C 4.90625 -31.367188 7.695312 -37.40625 12.71875 -41.625 C 17.738281 -45.851562 25.210938 -47.613281 35.140625 -46.90625 C 40.785156 -46.5 45.703125 -45.21875 49.890625 -43.0625 C 54.085938 -40.914062 57.566406 -37.804688 60.328125 -33.734375 C 58.273438 -32.859375 54.265625 -31.113281 48.296875 -28.5 L 46.59375 -27.6875 C 44.988281 -29.519531 43.078125 -30.945312 40.859375 -31.96875 C 38.640625 -33 36.257812 -33.601562 33.71875 -33.78125 C 29.5 -34.082031 26.28125 -33.195312 24.0625 -31.125 C 21.84375 -29.0625 20.613281 -26.40625 20.375 -23.15625 C 20.125 -19.644531 21.03125 -16.734375 23.09375 -14.421875 C 25.164062 -12.109375 28.484375 -10.789062 33.046875 -10.46875 C 35.015625 -10.320312 36.945312 -10.46875 38.84375 -10.90625 C 40.75 -11.34375 42.394531 -12.21875 43.78125 -13.53125 L 30.9375 -14.4375 Z M 31.703125 -25.125 "/></g></g></g><g fill="#000000" fill-opacity="1"><g transform="translate(774.892908, 232.928774)"><g><path d="M 27.984375 15.5625 C 19.066406 10.84375 13.535156 5.441406 11.390625 -0.640625 C 9.242188 -6.734375 10.023438 -13.285156 13.734375 -20.296875 C 17.398438 -27.210938 22.351562 -31.503906 28.59375 -33.171875 C 34.832031 -34.847656 42.425781 -33.316406 51.375 -28.578125 C 60.34375 -23.816406 65.890625 -18.382812 68.015625 -12.28125 C 70.140625 -6.1875 69.367188 0.316406 65.703125 7.234375 C 61.972656 14.273438 57.007812 18.617188 50.8125 20.265625 C 44.613281 21.910156 37.003906 20.34375 27.984375 15.5625 Z M 34.28125 3.671875 C 38.59375 5.960938 42.132812 6.785156 44.90625 6.140625 C 47.6875 5.492188 50.007812 3.414062 51.875 -0.09375 C 53.675781 -3.5 54.070312 -6.539062 53.0625 -9.21875 C 52.050781 -11.90625 49.390625 -14.394531 45.078125 -16.6875 C 40.796875 -18.957031 37.253906 -19.753906 34.453125 -19.078125 C 31.660156 -18.410156 29.363281 -16.375 27.5625 -12.96875 C 25.726562 -9.5 25.316406 -6.425781 26.328125 -3.75 C 27.347656 -1.070312 30 1.398438 34.28125 3.671875 Z M 34.28125 3.671875 "/></g></g></g><g fill="#000000" fill-opacity="1"><g transform="translate(840.747411, 271.079975)"><g><path d="M 73.5 15.90625 C 67.476562 20.257812 61.128906 25.066406 54.453125 30.328125 C 47.753906 35.617188 41.582031 40.691406 35.9375 45.546875 L 21.3125 27 L 39.6875 -7.875 L 12.140625 15.390625 L 1.640625 2.078125 C 8.554688 -2.929688 14.929688 -7.742188 20.765625 -12.359375 C 26.578125 -16.941406 32.722656 -22.007812 39.203125 -27.5625 L 54.234375 -8.5 L 35.125 27.03125 L 63.484375 3.203125 Z M 73.5 15.90625 "/></g></g></g><g fill="#000000" fill-opacity="1"><g transform="translate(883.72977, 330.151782)"><g><path d="M 19.0625 20.1875 C 19.78125 22.601562 21.675781 28.789062 24.75 38.75 C 25.144531 40.019531 25.617188 41.492188 26.171875 43.171875 C 26.722656 44.847656 27.304688 46.71875 27.921875 48.78125 C 25.847656 49.019531 23.804688 49.382812 21.796875 49.875 C 19.785156 50.375 17.296875 51.035156 14.328125 51.859375 L 0.84375 3.0625 L 15.03125 -0.859375 C 16.988281 1.097656 19.3125 3.1875 22 5.40625 C 24.6875 7.632812 28.207031 10.503906 32.5625 14.015625 C 36.65625 17.265625 39.585938 19.625 41.359375 21.09375 C 40.398438 17.757812 38.3125 11.101562 35.09375 1.125 C 33.957031 -2.3125 33.207031 -4.613281 32.84375 -5.78125 C 35.976562 -6.644531 38.597656 -7.40625 40.703125 -8.0625 C 42.816406 -8.71875 44.878906 -9.4375 46.890625 -10.21875 L 60.515625 39.09375 L 46.25 43.03125 C 44.15625 41.195312 40.125 37.835938 34.15625 32.953125 C 27.445312 27.503906 22.414062 23.25 19.0625 20.1875 Z M 19.0625 20.1875 "/></g></g></g><g fill="#000000" fill-opacity="1"><g transform="translate(900.309751, 397.694857)"><g><path d="M -5.859375 43.890625 C -3.265625 43.398438 0 42.707031 3.9375 41.8125 L 6.734375 20.9375 L -2.1875 16.421875 L 0 0 L 45.046875 24.671875 L 41.84375 48.734375 L -8.125 60.828125 Z M 14.640625 39.4375 C 19.429688 38.394531 24.238281 37.3125 29.0625 36.1875 L 33.53125 35.171875 C 29.757812 33.109375 24.0625 30.0625 16.4375 26.03125 Z M 14.640625 39.4375 "/></g></g></g><g fill="#000000" fill-opacity="1"><g transform="translate(887.082541, 471.204041)"><g><path d="M 2.125 22.90625 C -4.1875 33.988281 -9.296875 43.234375 -13.203125 50.640625 C -14.847656 49.015625 -16.53125 47.625 -18.25 46.46875 C -19.96875 45.320312 -22.101562 44.007812 -24.65625 42.53125 L -1.328125 2.28125 C 5.878906 6.875 12.695312 11.035156 19.125 14.765625 C 25.5625 18.492188 32.5625 22.34375 40.125 26.3125 L 32.046875 40.25 Z M 2.125 22.90625 "/></g></g></g><g fill="#000000" fill-opacity="1"><g transform="translate(852.194003, 527.224986)"><g><path d="M -6.890625 20.734375 C -19.992188 31.128906 -29.382812 38.800781 -35.0625 43.75 C -35.925781 42.132812 -36.921875 40.554688 -38.046875 39.015625 C -39.179688 37.472656 -40.644531 35.554688 -42.4375 33.265625 L -2.078125 1.625 C 2.898438 8.5625 7.6875 14.953125 12.28125 20.796875 C 16.863281 26.648438 21.929688 32.832031 27.484375 39.34375 L -12.875 70.984375 L -20.25 61.578125 L 7.84375 39.546875 L 3.9375 34.5625 C 2.25 35.832031 -0.222656 37.742188 -3.484375 40.296875 C -8.984375 44.609375 -14.59375 49.175781 -20.3125 54 L -27.3125 45.0625 C -21.257812 40.664062 -15.484375 36.3125 -9.984375 32 C -6.722656 29.445312 -4.28125 27.492188 -2.65625 26.140625 Z M -6.890625 20.734375 "/></g></g></g><g fill="#000000" fill-opacity="1"><g transform="translate(795.693598, 568.337909)"><g><path d="M -20.09375 19.171875 C -22.5 19.898438 -28.675781 21.828125 -38.625 24.953125 C -39.894531 25.347656 -41.363281 25.828125 -43.03125 26.390625 C -44.695312 26.953125 -46.5625 27.546875 -48.625 28.171875 C -48.882812 26.097656 -49.265625 24.054688 -49.765625 22.046875 C -50.273438 20.046875 -50.945312 17.5625 -51.78125 14.59375 L -3.046875 0.859375 L 0.953125 15.03125 C -1.015625 17 -3.101562 19.332031 -5.3125 22.03125 C -7.519531 24.726562 -10.363281 28.265625 -13.84375 32.640625 C -17.082031 36.753906 -19.425781 39.695312 -20.875 41.46875 C -17.539062 40.488281 -10.894531 38.367188 -0.9375 35.109375 C 2.488281 33.953125 4.785156 33.1875 5.953125 32.8125 C 6.835938 35.945312 7.609375 38.566406 8.265625 40.671875 C 8.929688 42.773438 9.660156 44.832031 10.453125 46.84375 L -38.78125 60.71875 L -42.796875 46.46875 C -40.960938 44.363281 -37.625 40.316406 -32.78125 34.328125 C -27.351562 27.585938 -23.125 22.535156 -20.09375 19.171875 Z M -20.09375 19.171875 "/></g></g></g></svg>