<svg xmlns="http://www.w3.org/2000/svg" width="143" height="143" fill="none" viewBox="0 0 143 143">
  <path fill="#1ED760" d="M40.219 58.792a6.703 6.703 0 1 0 13.406 0 6.703 6.703 0 0 0-13.406 0Zm49.156 0a6.703 6.703 0 1 0 13.406 0 6.703 6.703 0 0 0-13.406 0ZM71.5 8.937C36.951 8.938 8.937 36.951 8.937 71.5c0 34.549 28.014 62.562 62.563 62.562 34.549 0 62.562-28.013 62.562-62.562 0-34.549-28.013-62.563-62.562-62.563Zm36.728 99.291a51.947 51.947 0 0 1-16.52 11.143c-6.383 2.71-13.184 4.078-20.208 4.078-7.024 0-13.825-1.368-20.221-4.078a51.715 51.715 0 0 1-16.52-11.143 51.955 51.955 0 0 1-11.144-16.52C20.919 85.324 19.55 78.523 19.55 71.5c0-7.024 1.368-13.825 4.078-20.221a51.725 51.725 0 0 1 11.143-16.52 51.952 51.952 0 0 1 16.52-11.144c6.383-2.696 13.184-4.064 20.208-4.064 7.024 0 13.825 1.368 20.221 4.078a51.735 51.735 0 0 1 16.521 11.143 51.96 51.96 0 0 1 11.143 16.52c2.696 6.383 4.064 13.184 4.064 20.208 0 7.024-1.368 13.825-4.078 20.221a51.506 51.506 0 0 1-11.143 16.507ZM92.727 74.433h-6.718c-.586 0-1.089.446-1.13 1.033-.531 6.913-6.327 12.373-13.379 12.373s-12.862-5.46-13.378-12.373a1.128 1.128 0 0 0-1.132-1.033h-6.717a1.117 1.117 0 0 0-1.117 1.173c.615 11.772 10.404 21.17 22.344 21.17 11.94 0 21.73-9.398 22.344-21.17a1.119 1.119 0 0 0-1.117-1.173Z"/>
</svg>
