<svg xmlns="http://www.w3.org/2000/svg" xmlns:xlink="http://www.w3.org/1999/xlink" width="1080" zoomAndPan="magnify" viewBox="0 0 810 809.999993" height="1080" preserveAspectRatio="xMidYMid meet" version="1.0"><defs><g/></defs><g fill="#000000" fill-opacity="1"><g transform="translate(367.701588, 691.870858)"><g><path d="M -23.875 14.09375 C -20.769531 14.71875 -18.0625 16.066406 -15.75 18.140625 C -13.445312 20.222656 -11.800781 22.738281 -10.8125 25.6875 C -9.820312 28.644531 -9.640625 31.679688 -10.265625 34.796875 C -10.867188 37.828125 -12.191406 40.5 -14.234375 42.8125 C -16.273438 45.132812 -18.757812 46.8125 -21.6875 47.84375 C -24.625 48.882812 -27.644531 49.09375 -30.75 48.46875 C -33.800781 47.863281 -36.476562 46.519531 -38.78125 44.4375 C -41.09375 42.351562 -42.757812 39.84375 -43.78125 36.90625 C -44.8125 33.976562 -45.023438 31 -44.421875 27.96875 C -43.796875 24.851562 -42.441406 22.125 -40.359375 19.78125 C -38.285156 17.445312 -35.78125 15.765625 -32.84375 14.734375 C -29.914062 13.703125 -26.925781 13.488281 -23.875 14.09375 Z M -23.875 14.09375 "/></g></g></g><g fill="#000000" fill-opacity="1"><g transform="translate(300.225727, 674.376788)"><g/></g></g><g fill="#000000" fill-opacity="1"><g transform="translate(256.14567, 657.710818)"><g><path d="M -46.71875 -38.90625 C -48.039062 -32.019531 -49.71875 -21.21875 -51.75 -6.5 L -34 -8.03125 L -24.03125 -20 L -3.328125 -2.765625 C -12.710938 7.617188 -21.304688 17.492188 -29.109375 26.859375 C -36.910156 36.234375 -45.070312 46.476562 -53.59375 57.59375 L -74.296875 40.359375 L -54 16 C -72.59375 17.59375 -86.617188 19.664062 -96.078125 22.21875 L -123 -0.203125 L -75.203125 -4.34375 C -74.566406 -13.007812 -74.019531 -22.550781 -73.5625 -32.96875 C -73.101562 -43.382812 -72.859375 -52.609375 -72.828125 -60.640625 Z M -46.71875 -38.90625 "/></g></g></g><g fill="#000000" fill-opacity="1"><g transform="translate(167.386471, 577.783747)"><g><path d="M -31.3125 -17.40625 C -44.050781 -41.675781 -53.539062 -59.132812 -59.78125 -69.78125 C -56.925781 -70.695312 -54.082031 -71.828125 -51.25 -73.171875 C -48.425781 -74.523438 -44.898438 -76.296875 -40.671875 -78.484375 L -1.984375 -3.84375 C -14.671875 2.082031 -26.425781 7.847656 -37.25 13.453125 C -48.082031 19.066406 -59.570312 25.347656 -71.71875 32.296875 L -110.40625 -42.34375 L -93.03125 -51.359375 L -66.09375 0.609375 L -56.859375 -4.171875 C -58.390625 -7.265625 -60.710938 -11.820312 -63.828125 -17.84375 C -69.109375 -28.03125 -74.765625 -38.46875 -80.796875 -49.15625 L -64.28125 -57.703125 C -59.007812 -46.628906 -53.734375 -36 -48.453125 -25.8125 C -45.335938 -19.789062 -42.953125 -15.265625 -41.296875 -12.234375 Z M -31.3125 -17.40625 "/></g></g></g><g fill="#000000" fill-opacity="1"><g transform="translate(118.089686, 474.557339)"><g><path d="M -86.140625 -89.53125 L -69.0625 -83.78125 C -53.957031 -78.726562 -41.867188 -74.765625 -32.796875 -71.890625 C -23.734375 -69.015625 -14.554688 -66.4375 -5.265625 -64.15625 L -2.609375 -31.921875 C -11.285156 -28.242188 -19.84375 -24.265625 -28.28125 -19.984375 C -36.71875 -15.703125 -47.523438 -10.019531 -60.703125 -2.9375 C -62.910156 -1.757812 -68.769531 1.359375 -78.28125 6.421875 L -80.734375 -23.5625 C -73.929688 -26.289062 -65.25 -30.21875 -54.6875 -35.34375 C -45.351562 -39.875 -37.253906 -43.582031 -30.390625 -46.46875 C -35.484375 -47.5625 -40.9375 -48.941406 -46.75 -50.609375 C -52.5625 -52.273438 -56.101562 -53.269531 -57.375 -53.59375 C -68.707031 -56.851562 -77.507812 -59.207031 -83.78125 -60.65625 Z M -86.140625 -89.53125 "/></g></g></g><g fill="#000000" fill-opacity="1"><g transform="translate(114.664052, 355.482742)"><g><path d="M -36.109375 -80.375 C -38.910156 -72.25 -40.914062 -66.222656 -42.125 -62.296875 L -6.578125 -52.015625 C -5.484375 -56.054688 -3.96875 -62.226562 -2.03125 -70.53125 L 18.65625 -64.546875 L 1.203125 -4.15625 L -19.484375 -10.140625 C -16.753906 -17.984375 -14.753906 -23.972656 -13.484375 -28.109375 L -49.03125 -38.390625 C -50.164062 -34.210938 -51.675781 -28.078125 -53.5625 -19.984375 L -74.25 -25.96875 L -56.796875 -86.359375 Z M -36.109375 -80.375 "/></g></g></g><g fill="#000000" fill-opacity="1"><g transform="translate(142.089065, 266.001189)"><g><path d="M -5.234375 -123.15625 C 4.191406 -115.414062 14.457031 -107.34375 25.5625 -98.9375 C 36.726562 -90.507812 47.320312 -82.816406 57.34375 -75.859375 L 33.984375 -44.953125 L -28.921875 -59.703125 L 19.375 -25.625 L 2.609375 -3.453125 C -8.203125 -12.347656 -18.472656 -20.46875 -28.203125 -27.8125 C -37.867188 -35.125 -48.457031 -42.769531 -59.96875 -50.75 L -35.96875 -82.515625 L 28.3125 -66.890625 L -21.21875 -102.015625 Z M -5.234375 -123.15625 "/></g></g></g><g fill="#000000" fill-opacity="1"><g transform="translate(223.725194, 173.282389)"><g/></g></g><g fill="#000000" fill-opacity="1"><g transform="translate(265.301643, 145.243262)"><g><path d="M 11.171875 -25.375 C 8.285156 -24.070312 5.296875 -23.59375 2.203125 -23.9375 C -0.878906 -24.28125 -3.6875 -25.363281 -6.21875 -27.1875 C -8.75 -29.007812 -10.671875 -31.363281 -11.984375 -34.25 C -13.253906 -37.070312 -13.734375 -40.019531 -13.421875 -43.09375 C -13.117188 -46.164062 -12.078125 -48.972656 -10.296875 -51.515625 C -8.523438 -54.066406 -6.195312 -55.992188 -3.3125 -57.296875 C -0.488281 -58.578125 2.460938 -59.046875 5.546875 -58.703125 C 8.640625 -58.367188 11.457031 -57.3125 14 -55.53125 C 16.550781 -53.757812 18.460938 -51.460938 19.734375 -48.640625 C 21.046875 -45.753906 21.539062 -42.75 21.21875 -39.625 C 20.894531 -36.507812 19.84375 -33.675781 18.0625 -31.125 C 16.289062 -28.570312 13.992188 -26.65625 11.171875 -25.375 Z M 11.171875 -25.375 "/></g></g></g><g fill="#000000" fill-opacity="1"><g transform="translate(330.300116, 120.067212)"><g/></g></g><g fill="#000000" fill-opacity="1"><g transform="translate(375.786388, 107.851786)"><g><path d="M 51.984375 -41.1875 L 98.046875 -37.890625 L 94.84375 6.796875 L 75.875 5.4375 L 74.96875 -13.828125 C 72.3125 -7.148438 68.09375 -2.351562 62.3125 0.5625 C 56.539062 3.476562 49.664062 4.648438 41.6875 4.078125 C 34.414062 3.554688 28.070312 1.472656 22.65625 -2.171875 C 17.25 -5.816406 13.160156 -10.773438 10.390625 -17.046875 C 7.617188 -23.316406 6.519531 -30.484375 7.09375 -38.546875 C 8.019531 -51.410156 12.597656 -61.304688 20.828125 -68.234375 C 29.066406 -75.171875 41.316406 -78.054688 57.578125 -76.890625 C 66.859375 -76.222656 74.929688 -74.125 81.796875 -70.59375 C 88.671875 -67.070312 94.359375 -61.96875 98.859375 -55.28125 C 95.503906 -53.851562 88.941406 -50.992188 79.171875 -46.703125 L 76.359375 -45.390625 C 73.765625 -48.398438 70.644531 -50.738281 67 -52.40625 C 63.363281 -54.070312 59.457031 -55.054688 55.28125 -55.359375 C 48.363281 -55.847656 43.082031 -54.398438 39.4375 -51.015625 C 35.800781 -47.628906 33.789062 -43.273438 33.40625 -37.953125 C 33 -32.203125 34.484375 -27.429688 37.859375 -23.640625 C 41.242188 -19.859375 46.675781 -17.695312 54.15625 -17.15625 C 57.394531 -16.925781 60.578125 -17.164062 63.703125 -17.875 C 66.828125 -18.59375 69.519531 -20.035156 71.78125 -22.203125 L 50.734375 -23.703125 Z M 51.984375 -41.1875 "/></g></g></g><g fill="#000000" fill-opacity="1"><g transform="translate(494.519718, 119.970836)"><g><path d="M 45.859375 25.515625 C 31.273438 17.785156 22.21875 8.925781 18.6875 -1.0625 C 15.164062 -11.050781 16.441406 -21.78125 22.515625 -33.25 C 28.523438 -44.582031 36.644531 -51.617188 46.875 -54.359375 C 57.101562 -57.109375 69.539062 -54.601562 84.1875 -46.84375 C 98.914062 -39.039062 108.015625 -30.140625 111.484375 -20.140625 C 114.960938 -10.140625 113.695312 0.523438 107.6875 11.859375 C 101.570312 23.390625 93.4375 30.503906 83.28125 33.203125 C 73.125 35.910156 60.648438 33.347656 45.859375 25.515625 Z M 56.1875 6.015625 C 63.269531 9.765625 69.085938 11.109375 73.640625 10.046875 C 78.191406 8.992188 81.988281 5.597656 85.03125 -0.140625 C 88 -5.742188 88.648438 -10.742188 86.984375 -15.140625 C 85.316406 -19.535156 80.941406 -23.609375 73.859375 -27.359375 C 66.847656 -31.078125 61.054688 -32.390625 56.484375 -31.296875 C 51.910156 -30.203125 48.140625 -26.851562 45.171875 -21.25 C 42.171875 -15.570312 41.503906 -10.535156 43.171875 -6.140625 C 44.835938 -1.753906 49.175781 2.296875 56.1875 6.015625 Z M 56.1875 6.015625 "/></g></g></g><g fill="#000000" fill-opacity="1"><g transform="translate(602.483036, 182.516694)"><g><path d="M 120.484375 26.046875 C 110.597656 33.210938 100.191406 41.109375 89.265625 49.734375 C 78.273438 58.398438 68.15625 66.703125 58.90625 74.640625 L 34.921875 44.234375 L 65.078125 -12.890625 L 19.90625 25.21875 L 2.6875 3.390625 C 14.019531 -4.816406 24.472656 -12.695312 34.046875 -20.25 C 43.554688 -27.757812 53.628906 -36.078125 64.265625 -45.203125 L 88.921875 -13.9375 L 57.578125 44.296875 L 104.078125 5.25 Z M 120.484375 26.046875 "/></g></g></g><g fill="#000000" fill-opacity="1"><g transform="translate(672.949149, 279.360273)"><g><path d="M 31.265625 33.125 C 32.421875 37.0625 35.519531 47.195312 40.5625 63.53125 C 41.195312 65.601562 41.96875 68.007812 42.875 70.75 C 43.789062 73.5 44.753906 76.566406 45.765625 79.953125 C 42.367188 80.359375 39.019531 80.960938 35.71875 81.765625 C 32.425781 82.566406 28.347656 83.640625 23.484375 84.984375 L 1.375 5 L 24.625 -1.421875 C 27.84375 1.804688 31.660156 5.242188 36.078125 8.890625 C 40.492188 12.535156 46.253906 17.222656 53.359375 22.953125 C 60.078125 28.285156 64.894531 32.160156 67.8125 34.578125 C 66.21875 29.109375 62.785156 18.191406 57.515625 1.828125 C 55.671875 -3.785156 54.441406 -7.5625 53.828125 -9.5 C 58.972656 -10.914062 63.269531 -12.148438 66.71875 -13.203125 C 70.175781 -14.265625 73.554688 -15.445312 76.859375 -16.75 L 99.1875 64.0625 L 75.828125 70.515625 C 72.378906 67.503906 65.765625 62 55.984375 54 C 44.992188 45.0625 36.753906 38.101562 31.265625 33.125 Z M 31.265625 33.125 "/></g></g></g><g fill="#000000" fill-opacity="1"><g transform="translate(700.130794, 390.091759)"><g><path d="M -9.609375 71.953125 C -5.347656 71.128906 0 69.988281 6.4375 68.53125 L 11.015625 34.328125 L -3.59375 26.921875 L 0 0 L 73.84375 40.4375 L 68.578125 79.890625 L -13.328125 99.71875 Z M 24 64.65625 C 31.863281 62.9375 39.738281 61.148438 47.625 59.296875 L 54.9375 57.65625 C 48.769531 54.289062 39.4375 49.296875 26.9375 42.671875 Z M 24 64.65625 "/></g></g></g><g fill="#000000" fill-opacity="1"><g transform="translate(678.445829, 510.604211)"><g><path d="M 3.5 37.546875 C -6.863281 55.703125 -15.234375 70.851562 -21.609375 83 C -24.316406 80.351562 -27.082031 78.082031 -29.90625 76.1875 C -32.738281 74.300781 -36.242188 72.144531 -40.421875 69.71875 L -2.171875 3.75 C 9.640625 11.257812 20.816406 18.066406 31.359375 24.171875 C 41.910156 30.296875 53.382812 36.617188 65.78125 43.140625 L 52.546875 65.96875 Z M 3.5 37.546875 "/></g></g></g><g fill="#000000" fill-opacity="1"><g transform="translate(621.248716, 602.446242)"><g><path d="M -11.28125 34 C -32.757812 51.019531 -48.148438 63.59375 -57.453125 71.71875 C -58.890625 69.070312 -60.53125 66.484375 -62.375 63.953125 C -64.226562 61.421875 -66.625 58.28125 -69.5625 54.53125 L -3.40625 2.671875 C 4.78125 14.035156 12.632812 24.515625 20.15625 34.109375 C 27.675781 43.703125 35.976562 53.828125 45.0625 64.484375 L -21.09375 116.34375 L -33.171875 100.9375 L 12.890625 64.828125 L 6.46875 56.65625 C 3.707031 58.726562 -0.335938 61.859375 -5.671875 66.046875 C -14.703125 73.117188 -23.910156 80.601562 -33.296875 88.5 L -44.765625 73.875 C -34.859375 66.644531 -25.390625 59.492188 -16.359375 52.421875 C -11.023438 48.234375 -7.019531 45.046875 -4.34375 42.859375 Z M -11.28125 34 "/></g></g></g><g fill="#000000" fill-opacity="1"><g transform="translate(528.620792, 669.847604)"><g><path d="M -32.953125 31.4375 C -36.890625 32.625 -47.015625 35.773438 -63.328125 40.890625 C -65.390625 41.546875 -67.789062 42.332031 -70.53125 43.25 C -73.269531 44.175781 -76.332031 45.15625 -79.71875 46.1875 C -80.15625 42.789062 -80.773438 39.445312 -81.578125 36.15625 C -82.390625 32.863281 -83.484375 28.785156 -84.859375 23.921875 L -5 1.40625 L 1.546875 24.625 C -1.660156 27.851562 -5.078125 31.679688 -8.703125 36.109375 C -12.328125 40.546875 -16.988281 46.335938 -22.6875 53.484375 C -27.976562 60.222656 -31.828125 65.054688 -34.234375 67.984375 C -28.765625 66.367188 -17.867188 62.882812 -1.546875 57.53125 C 4.078125 55.65625 7.847656 54.40625 9.765625 53.78125 C 11.210938 58.914062 12.476562 63.207031 13.5625 66.65625 C 14.644531 70.101562 15.835938 73.472656 17.140625 76.765625 L -63.546875 99.515625 L -70.125 76.203125 C -67.132812 72.734375 -61.664062 66.09375 -53.71875 56.28125 C -44.84375 45.238281 -37.921875 36.957031 -32.953125 31.4375 Z M -32.953125 31.4375 "/></g></g></g></svg>