<svg xmlns="http://www.w3.org/2000/svg" width="808" height="504" fill="none" viewBox="0 0 808 504">
  <path fill="#fff" d="M289.367 311.375c0 26.594-6.263 48.948-18.789 67.063-12.526 18.114-29.677 31.7-51.453 40.757-21.583 9.058-46.25 13.586-74 13.586-27.557 0-52.32-4.528-74.29-13.586-21.775-9.057-39.022-22.643-51.741-40.757C6.375 360.323.016 337.969.016 311.375c0-18.115 3.565-34.398 10.695-48.852 7.323-14.453 17.44-26.786 30.351-37 13.105-10.213 28.425-18.018 45.961-23.414 17.73-5.395 36.904-8.093 57.524-8.093 27.75 0 52.513 4.817 74.289 14.453 21.969 9.442 39.216 22.932 51.742 40.469 12.526 17.536 18.789 38.348 18.789 62.437Zm-90.765-6.648c0-12.334-2.313-22.74-6.938-31.219-4.432-8.672-10.695-15.32-18.789-19.946-8.094-4.817-17.536-7.226-28.328-7.226-10.792 0-20.235 2.409-28.328 7.226-8.094 4.626-14.453 11.274-19.078 19.946-4.433 8.479-6.649 18.885-6.649 31.219 0 11.947 2.313 22.354 6.938 31.218 4.625 8.672 10.984 15.321 19.078 19.946 8.094 4.432 17.633 6.648 28.617 6.648 10.984 0 20.427-2.216 28.328-6.648 7.901-4.625 14.068-11.274 18.5-19.946 4.432-8.864 6.649-19.271 6.649-31.218Zm81.804-186.735c0 21.776-5.781 40.951-17.344 57.524-11.369 16.38-27.268 29.195-47.695 38.445-20.427 9.057-43.841 13.586-70.242 13.586-26.401 0-49.912-4.529-70.531-13.586-20.427-9.25-36.518-22.065-48.274-38.445-11.562-16.573-17.343-35.748-17.343-57.524 0-25.437 5.78-46.924 17.343-64.46C38.075 35.994 54.167 22.697 74.594 13.64 95.02 4.583 118.339.055 144.547.055c26.594 0 50.104 4.528 70.531 13.586 20.427 9.057 36.422 22.354 47.984 39.89 11.563 17.537 17.344 39.024 17.344 64.461Zm-90.187 4.625c0-10.599-1.831-19.752-5.492-27.46-3.469-7.902-8.576-13.972-15.321-18.212-6.745-4.432-15.031-6.648-24.859-6.648-9.443 0-17.537 2.12-24.281 6.36-6.745 4.046-11.948 10.02-15.61 17.921-3.468 7.708-5.203 17.055-5.203 28.039 0 10.792 1.735 20.235 5.203 28.328 3.662 7.901 8.865 14.164 15.61 18.789 6.937 4.433 15.224 6.649 24.859 6.649 9.828 0 18.018-2.216 24.57-6.649 6.745-4.625 11.852-10.888 15.321-18.789 3.468-8.093 5.203-17.536 5.203-28.328Zm440.531 56.367L438.812 426.133l-1.312-.4c-14.317-4.439-27.273-11.147-38.867-20.124-11.755-9.442-21.873-21.198-30.352-35.265-8.479-14.068-15.031-30.834-19.656-50.297-4.432-19.464-6.648-41.529-6.648-66.195v-74.868c0-31.218 3.372-58.005 10.117-80.359 6.937-22.354 16.862-40.854 29.773-55.5 12.912-14.646 28.136-25.438 45.672-32.375C445.268 3.812 464.828.344 486.219.344c17.151 0 33.049 2.216 47.695 6.648 14.839 4.433 28.232 11.274 40.18 20.524 11.948 9.25 22.065 20.909 30.351 34.976 8.479 14.068 14.935 30.834 19.367 50.297 4.533 18.886 6.845 40.457 6.935 64.711.002.494.003 1.484.003 1.484Zm-90.188 86.141v-97.992c0-14.453-.867-26.979-2.601-37.578-1.542-10.792-3.854-19.946-6.938-27.461-2.89-7.516-6.552-13.586-10.984-18.211-4.432-4.625-9.539-7.998-15.32-10.117-5.589-2.313-11.755-3.47-18.5-3.47-8.479 0-16.091 1.735-22.836 5.204-6.745 3.469-12.43 8.96-17.055 16.477-4.625 7.322-8.19 17.247-10.695 29.773-2.313 12.333-3.469 27.461-3.469 45.383v97.992c0 14.453.771 27.076 2.313 37.867 1.734 10.792 4.046 20.042 6.937 27.75 3.083 7.516 6.841 13.682 11.274 18.5 4.432 4.625 9.539 7.998 15.32 10.117 5.781 2.12 12.044 3.18 18.789 3.18l1.415-.015L539.048 296s1.514-19.496 1.514-30.875Zm147.672 115.077V405H585.571v-21.022l47.964-50.822c4.49-5.17 8.062-9.729 10.715-13.675 2.721-3.946 4.694-7.517 5.919-10.715 1.225-3.266 1.837-6.259 1.837-8.98 0-4.423-.714-8.164-2.143-11.226-1.361-3.061-3.368-5.409-6.021-7.041-2.654-1.633-5.885-2.45-9.695-2.45-4.082 0-7.586 1.055-10.511 3.164-2.926 2.109-5.171 5.034-6.736 8.776-1.564 3.674-2.347 7.858-2.347 12.553h-32.044c0-9.049 2.177-17.281 6.532-24.697 4.354-7.483 10.443-13.436 18.267-17.859 7.824-4.49 16.974-6.735 27.451-6.735 10.75 0 19.764 1.701 27.044 5.103 7.279 3.401 12.79 8.266 16.532 14.593 3.742 6.327 5.613 13.947 5.613 22.859 0 5.035-.817 9.899-2.449 14.593-1.565 4.695-3.844 9.355-6.838 13.981-2.993 4.627-6.599 9.355-10.817 14.185-4.218 4.763-8.981 9.797-14.287 15.104l-22.452 25.513h61.129Zm119.501-62.762v26.432c0 10.885-1.224 20.308-3.673 28.268-2.382 7.96-5.851 14.525-10.41 19.695-4.49 5.171-9.865 9.015-16.124 11.532-6.191 2.449-13.062 3.674-20.614 3.674-6.055 0-11.702-.782-16.94-2.347-5.239-1.565-9.967-3.98-14.185-7.246-4.15-3.333-7.722-7.483-10.716-12.45-2.993-4.966-5.306-10.885-6.939-17.757-1.565-6.871-2.347-14.661-2.347-23.369V317.44c0-11.021 1.19-20.478 3.571-28.37 2.45-7.892 5.953-14.423 10.512-19.593 4.558-5.171 9.933-8.981 16.124-11.43 6.259-2.449 13.164-3.674 20.716-3.674 6.055 0 11.668.782 16.838 2.347 5.239 1.565 9.967 3.98 14.185 7.246 4.218 3.265 7.79 7.381 10.716 12.348 2.993 4.966 5.272 10.885 6.837 17.757 1.633 6.803 2.449 14.593 2.449 23.369Zm-31.839 30.412v-34.596c0-5.102-.307-9.524-.919-13.266-.544-3.81-1.361-7.042-2.449-9.695-1.021-2.653-2.313-4.796-3.878-6.429s-3.368-2.824-5.409-3.572c-1.973-.816-4.15-1.225-6.531-1.225-2.994 0-5.681.613-8.062 1.837-2.381 1.225-4.388 3.164-6.021 5.817-1.633 2.585-2.891 6.089-3.776 10.511-.816 4.355-1.225 9.695-1.225 16.022v34.596c0 5.102.273 9.558.817 13.368.612 3.81 1.429 7.076 2.449 9.797 1.089 2.653 2.415 4.83 3.98 6.531 1.565 1.633 3.368 2.824 5.409 3.572 2.041.748 4.252 1.123 6.633 1.123 2.994 0 5.647-.579 7.96-1.735 2.313-1.225 4.286-3.164 5.919-5.817 1.701-2.721 2.959-6.293 3.776-10.715.884-4.423 1.327-9.797 1.327-16.124Z"/>
</svg>
