<svg xmlns="http://www.w3.org/2000/svg" xmlns:xlink="http://www.w3.org/1999/xlink" width="1080" zoomAndPan="magnify" viewBox="0 0 810 809.999993" height="1080" preserveAspectRatio="xMidYMid meet" version="1.0"><defs><g/></defs><g fill="white" fill-opacity="1"><g transform="translate(367.435943, 696.798223)"><g><path d="M -24.0625 14.1875 C -20.925781 14.8125 -18.195312 16.171875 -15.875 18.265625 C -13.550781 20.359375 -11.890625 22.894531 -10.890625 25.875 C -9.890625 28.851562 -9.703125 31.910156 -10.328125 35.046875 C -10.941406 38.109375 -12.273438 40.800781 -14.328125 43.125 C -16.390625 45.457031 -18.894531 47.144531 -21.84375 48.1875 C -24.789062 49.226562 -27.832031 49.4375 -30.96875 48.8125 C -34.03125 48.195312 -36.722656 46.84375 -39.046875 44.75 C -41.367188 42.65625 -43.046875 40.132812 -44.078125 37.1875 C -45.117188 34.238281 -45.332031 31.234375 -44.71875 28.171875 C -44.09375 25.035156 -42.734375 22.285156 -40.640625 19.921875 C -38.546875 17.566406 -36.023438 15.867188 -33.078125 14.828125 C -30.128906 13.785156 -27.125 13.570312 -24.0625 14.1875 Z M -24.0625 14.1875 "/></g></g></g><g fill="white" fill-opacity="1"><g transform="translate(299.479519, 679.179532)"><g/></g></g><g fill="white" fill-opacity="1"><g transform="translate(255.085533, 662.394891)"><g><path d="M -47.0625 -39.1875 C -48.382812 -32.25 -50.070312 -21.363281 -52.125 -6.53125 L -34.21875 -8.078125 L -24.1875 -20.140625 L -3.34375 -2.796875 C -12.8125 7.671875 -21.46875 17.617188 -29.3125 27.046875 C -37.175781 36.484375 -45.390625 46.796875 -53.953125 57.984375 L -74.796875 40.640625 L -54.375 16.109375 C -73.101562 17.710938 -87.222656 19.800781 -96.734375 22.375 L -123.859375 -0.21875 L -75.75 -4.375 C -75.101562 -13.101562 -74.546875 -22.707031 -74.078125 -33.1875 C -73.617188 -43.664062 -73.375 -52.957031 -73.34375 -61.0625 Z M -47.0625 -39.1875 "/></g></g></g><g fill="white" fill-opacity="1"><g transform="translate(165.694223, 581.898587)"><g><path d="M -31.546875 -17.53125 C -44.359375 -41.957031 -53.914062 -59.539062 -60.21875 -70.28125 C -57.34375 -71.195312 -54.472656 -72.332031 -51.609375 -73.6875 C -48.753906 -75.039062 -45.203125 -76.820312 -40.953125 -79.03125 L -2 -3.875 C -14.78125 2.09375 -26.617188 7.898438 -37.515625 13.546875 C -48.421875 19.203125 -59.988281 25.523438 -72.21875 32.515625 L -111.171875 -42.640625 L -93.671875 -51.71875 L -66.5625 0.609375 L -57.28125 -4.1875 C -58.8125 -7.320312 -61.148438 -11.921875 -64.296875 -17.984375 C -69.609375 -28.234375 -75.300781 -38.738281 -81.375 -49.5 L -64.734375 -58.125 C -59.429688 -46.957031 -54.125 -36.25 -48.8125 -26 C -45.664062 -19.9375 -43.265625 -15.375 -41.609375 -12.3125 Z M -31.546875 -17.53125 "/></g></g></g><g fill="white" fill-opacity="1"><g transform="translate(116.046362, 477.937045)"><g><path d="M -86.75 -90.171875 L -69.5625 -84.390625 C -54.34375 -79.285156 -42.171875 -75.285156 -33.046875 -72.390625 C -23.921875 -69.492188 -14.671875 -66.898438 -5.296875 -64.609375 L -2.640625 -32.140625 C -11.367188 -28.429688 -19.984375 -24.425781 -28.484375 -20.125 C -36.984375 -15.820312 -47.867188 -10.101562 -61.140625 -2.96875 C -63.367188 -1.757812 -69.265625 1.382812 -78.828125 6.46875 L -81.296875 -23.703125 C -74.453125 -26.472656 -65.707031 -30.4375 -55.0625 -35.59375 C -45.675781 -40.164062 -37.523438 -43.894531 -30.609375 -46.78125 C -35.742188 -47.894531 -41.238281 -49.289062 -47.09375 -50.96875 C -52.945312 -52.644531 -56.507812 -53.644531 -57.78125 -53.96875 C -69.195312 -57.257812 -78.054688 -59.625 -84.359375 -61.0625 Z M -86.75 -90.171875 "/></g></g></g><g fill="white" fill-opacity="1"><g transform="translate(112.59633, 358.01442)"><g><path d="M -36.359375 -80.953125 C -39.191406 -72.753906 -41.210938 -66.679688 -42.421875 -62.734375 L -6.625 -52.390625 C -5.53125 -56.453125 -4 -62.664062 -2.03125 -71.03125 L 18.796875 -65 L 1.203125 -4.1875 L -19.625 -10.21875 C -16.882812 -18.113281 -14.875 -24.144531 -13.59375 -28.3125 L -49.390625 -38.65625 C -50.535156 -34.445312 -52.054688 -28.273438 -53.953125 -20.140625 L -74.78125 -26.15625 L -57.1875 -86.96875 Z M -36.359375 -80.953125 "/></g></g></g><g fill="white" fill-opacity="1"><g transform="translate(140.216649, 267.895577)"><g><path d="M -5.265625 -124.015625 C 4.210938 -116.210938 14.546875 -108.082031 25.734375 -99.625 C 36.972656 -91.125 47.644531 -83.378906 57.75 -76.390625 L 34.234375 -45.28125 L -29.125 -60.125 L 19.515625 -25.8125 L 2.625 -3.484375 C -8.257812 -12.441406 -18.597656 -20.617188 -28.390625 -28.015625 C -38.128906 -35.378906 -48.796875 -43.078125 -60.390625 -51.109375 L -36.203125 -83.09375 L 28.5 -67.359375 L -21.359375 -102.734375 Z M -5.265625 -124.015625 "/></g></g></g><g fill="white" fill-opacity="1"><g transform="translate(222.434172, 174.516487)"><g/></g></g><g fill="white" fill-opacity="1"><g transform="translate(264.306718, 146.277662)"><g><path d="M 11.25 -25.546875 C 8.332031 -24.234375 5.320312 -23.75 2.21875 -24.09375 C -0.875 -24.4375 -3.695312 -25.523438 -6.25 -27.359375 C -8.800781 -29.191406 -10.738281 -31.566406 -12.0625 -34.484375 C -13.351562 -37.328125 -13.835938 -40.296875 -13.515625 -43.390625 C -13.203125 -46.484375 -12.15625 -49.3125 -10.375 -51.875 C -8.59375 -54.445312 -6.242188 -56.390625 -3.328125 -57.703125 C -0.484375 -58.992188 2.488281 -59.46875 5.59375 -59.125 C 8.707031 -58.789062 11.546875 -57.726562 14.109375 -55.9375 C 16.671875 -54.144531 18.597656 -51.828125 19.890625 -48.984375 C 21.210938 -46.066406 21.707031 -43.039062 21.375 -39.90625 C 21.050781 -36.769531 19.992188 -33.914062 18.203125 -31.34375 C 16.410156 -28.769531 14.09375 -26.835938 11.25 -25.546875 Z M 11.25 -25.546875 "/></g></g></g><g fill="white" fill-opacity="1"><g transform="translate(329.768103, 120.922299)"><g/></g></g><g fill="white" fill-opacity="1"><g transform="translate(375.578322, 108.619891)"><g><path d="M 52.34375 -41.484375 L 98.734375 -38.15625 L 95.515625 6.84375 L 76.390625 5.484375 L 75.5 -13.921875 C 72.820312 -7.203125 68.578125 -2.375 62.765625 0.5625 C 56.953125 3.5 50.023438 4.679688 41.984375 4.109375 C 34.660156 3.585938 28.273438 1.488281 22.828125 -2.1875 C 17.378906 -5.863281 13.257812 -10.859375 10.46875 -17.171875 C 7.675781 -23.484375 6.570312 -30.695312 7.15625 -38.8125 C 8.082031 -51.769531 12.691406 -61.738281 20.984375 -68.71875 C 29.273438 -75.707031 41.609375 -78.617188 57.984375 -77.453125 C 67.335938 -76.773438 75.472656 -74.65625 82.390625 -71.09375 C 89.304688 -67.539062 95.03125 -62.398438 99.5625 -55.671875 C 96.1875 -54.234375 89.578125 -51.351562 79.734375 -47.03125 L 76.90625 -45.71875 C 74.28125 -48.738281 71.132812 -51.085938 67.46875 -52.765625 C 63.8125 -54.453125 59.878906 -55.445312 55.671875 -55.75 C 48.710938 -56.25 43.394531 -54.789062 39.71875 -51.375 C 36.050781 -47.96875 34.03125 -43.582031 33.65625 -38.21875 C 33.238281 -32.425781 34.734375 -27.625 38.140625 -23.8125 C 41.546875 -20 47.015625 -17.828125 54.546875 -17.296875 C 57.804688 -17.054688 61.007812 -17.296875 64.15625 -18.015625 C 67.300781 -18.734375 70.007812 -20.171875 72.28125 -22.328125 L 51.09375 -23.859375 Z M 52.34375 -41.484375 "/></g></g></g><g fill="white" fill-opacity="1"><g transform="translate(495.157278, 120.825237)"><g><path d="M 46.1875 25.703125 C 31.476562 17.921875 22.351562 9 18.8125 -1.0625 C 15.269531 -11.125 16.554688 -21.929688 22.671875 -33.484375 C 28.722656 -44.898438 36.894531 -51.992188 47.1875 -54.765625 C 57.488281 -57.535156 70.023438 -55.007812 84.796875 -47.1875 C 99.617188 -39.332031 108.78125 -30.363281 112.28125 -20.28125 C 115.78125 -10.207031 114.503906 0.535156 108.453125 11.953125 C 102.304688 23.578125 94.113281 30.742188 83.875 33.453125 C 73.632812 36.171875 61.070312 33.585938 46.1875 25.703125 Z M 56.59375 6.046875 C 63.71875 9.816406 69.570312 11.171875 74.15625 10.109375 C 78.738281 9.054688 82.5625 5.640625 85.625 -0.140625 C 88.625 -5.785156 89.28125 -10.820312 87.59375 -15.25 C 85.914062 -19.675781 81.515625 -23.773438 74.390625 -27.546875 C 67.328125 -31.285156 61.492188 -32.609375 56.890625 -31.515625 C 52.285156 -30.421875 48.484375 -27.050781 45.484375 -21.40625 C 42.460938 -15.6875 41.789062 -10.613281 43.46875 -6.1875 C 45.15625 -1.769531 49.53125 2.304688 56.59375 6.046875 Z M 56.59375 6.046875 "/></g></g></g><g fill="white" fill-opacity="1"><g transform="translate(603.889506, 183.816524)"><g><path d="M 121.328125 26.234375 C 111.378906 33.441406 100.90625 41.390625 89.90625 50.078125 C 78.84375 58.804688 68.648438 67.171875 59.328125 75.171875 L 35.171875 44.5625 L 65.515625 -12.984375 L 20.046875 25.40625 L 2.703125 3.421875 C 14.128906 -4.847656 24.660156 -12.785156 34.296875 -20.390625 C 43.878906 -27.953125 54.015625 -36.328125 64.703125 -45.515625 L 89.53125 -14.046875 L 57.96875 44.59375 L 104.796875 5.28125 Z M 121.328125 26.234375 "/></g></g></g><g fill="white" fill-opacity="1"><g transform="translate(674.857404, 281.349793)"><g><path d="M 31.484375 33.34375 C 32.648438 37.3125 35.769531 47.523438 40.84375 63.984375 C 41.488281 66.078125 42.269531 68.503906 43.1875 71.265625 C 44.101562 74.023438 45.070312 77.109375 46.09375 80.515625 C 42.675781 80.929688 39.300781 81.539062 35.96875 82.34375 C 32.644531 83.15625 28.535156 84.238281 23.640625 85.59375 L 1.390625 5.046875 L 24.8125 -1.421875 C 28.039062 1.816406 31.878906 5.269531 36.328125 8.9375 C 40.773438 12.613281 46.582031 17.34375 53.75 23.125 C 60.507812 28.488281 65.351562 32.382812 68.28125 34.8125 C 66.6875 29.300781 63.234375 18.316406 57.921875 1.859375 C 56.054688 -3.804688 54.816406 -7.609375 54.203125 -9.546875 C 59.390625 -10.972656 63.71875 -12.222656 67.1875 -13.296875 C 70.664062 -14.367188 74.066406 -15.554688 77.390625 -16.859375 L 99.875 64.53125 L 76.359375 71.03125 C 72.878906 67.988281 66.222656 62.4375 56.390625 54.375 C 45.316406 45.382812 37.015625 38.375 31.484375 33.34375 Z M 31.484375 33.34375 "/></g></g></g><g fill="white" fill-opacity="1"><g transform="translate(702.23261, 392.869924)"><g><path d="M -9.6875 72.46875 C -5.40625 71.644531 -0.0078125 70.492188 6.5 69.015625 L 11.09375 34.5625 L -3.625 27.109375 L 0 0 L 74.34375 40.703125 L 69.046875 80.453125 L -13.421875 100.4375 Z M 24.171875 65.109375 C 32.085938 63.390625 40.019531 61.59375 47.96875 59.71875 L 55.34375 58.078125 C 49.125 54.679688 39.71875 49.644531 27.125 42.96875 Z M 24.171875 65.109375 "/></g></g></g><g fill="white" fill-opacity="1"><g transform="translate(680.393232, 514.240635)"><g><path d="M 3.53125 37.8125 C -6.925781 56.101562 -15.359375 71.359375 -21.765625 83.578125 C -24.492188 80.921875 -27.28125 78.640625 -30.125 76.734375 C -32.976562 74.828125 -36.507812 72.65625 -40.71875 70.21875 L -2.1875 3.765625 C 9.707031 11.347656 20.96875 18.21875 31.59375 24.375 C 42.21875 30.53125 53.765625 36.882812 66.234375 43.4375 L 52.90625 66.4375 Z M 3.53125 37.8125 "/></g></g></g><g fill="white" fill-opacity="1"><g transform="translate(622.788742, 606.736709)"><g><path d="M -11.375 34.25 C -32.988281 51.382812 -48.484375 64.046875 -57.859375 72.234375 C -59.304688 69.578125 -60.957031 66.96875 -62.8125 64.40625 C -64.675781 61.851562 -67.085938 58.691406 -70.046875 54.921875 L -3.4375 2.6875 C 4.800781 14.144531 12.707031 24.703125 20.28125 34.359375 C 27.851562 44.023438 36.210938 54.210938 45.359375 64.921875 L -21.25 117.15625 L -33.40625 101.640625 L 12.96875 65.28125 L 6.515625 57.0625 C 3.734375 59.144531 -0.34375 62.296875 -5.71875 66.515625 C -14.800781 73.628906 -24.070312 81.171875 -33.53125 89.140625 L -45.09375 74.390625 C -35.101562 67.109375 -25.566406 59.910156 -16.484375 52.796875 C -11.109375 48.578125 -7.070312 45.367188 -4.375 43.171875 Z M -11.375 34.25 "/></g></g></g><g fill="white" fill-opacity="1"><g transform="translate(529.50117, 674.618077)"><g><path d="M -33.1875 31.65625 C -37.144531 32.84375 -47.34375 36.015625 -63.78125 41.171875 C -65.851562 41.835938 -68.269531 42.632812 -71.03125 43.5625 C -73.789062 44.488281 -76.875 45.472656 -80.28125 46.515625 C -80.71875 43.085938 -81.347656 39.71875 -82.171875 36.40625 C -82.992188 33.09375 -84.09375 28.988281 -85.46875 24.09375 L -5.03125 1.421875 L 1.5625 24.8125 C -1.675781 28.0625 -5.117188 31.914062 -8.765625 36.375 C -12.410156 40.84375 -17.101562 46.675781 -22.84375 53.875 C -28.175781 60.65625 -32.050781 65.515625 -34.46875 68.453125 C -28.957031 66.835938 -17.988281 63.332031 -1.5625 57.9375 C 4.09375 56.039062 7.890625 54.78125 9.828125 54.15625 C 11.285156 59.332031 12.5625 63.65625 13.65625 67.125 C 14.75 70.59375 15.945312 73.988281 17.25 77.3125 L -64.015625 100.21875 L -70.625 76.734375 C -67.613281 73.234375 -62.101562 66.546875 -54.09375 56.671875 C -45.15625 45.546875 -38.1875 37.207031 -33.1875 31.65625 Z M -33.1875 31.65625 "/></g></g></g></svg>